<svg xmlns="http://www.w3.org/2000/svg" viewBox="0 0 128 128" role="img" aria-labelledby="title desc">
  <title id="title">Female silhouette avatar</title>
  <desc id="desc">Gray female profile silhouette avatar.</desc>
  <rect width="128" height="128" fill="#E5E7EB"/>
  <ellipse cx="64" cy="124" rx="52" ry="24" fill="#9CA3AF"/>
  <path d="M28 113c4-18 18-30 36-30s32 12 36 30" fill="#9CA3AF"/>
  <path d="M64 23c-14 0-25 12-25 27 0 8 3 15 8 20h34c5-5 8-12 8-20 0-15-11-27-25-27z" fill="#9CA3AF"/>
  <ellipse cx="64" cy="49" rx="16" ry="19" fill="#E5E7EB"/>
  <path d="M47 70c-6-5-10-13-10-22 0-17 12-31 27-31s27 14 27 31c0 9-4 17-10 22l-3-6c2-4 4-9 4-14 0-11-8-20-18-20s-18 9-18 20c0 5 2 10 4 14l-3 6z" fill="#9CA3AF"/>
  <path d="M51 72c2 5 7 8 13 8s11-3 13-8" stroke="#9CA3AF" stroke-width="4" fill="none" stroke-linecap="round"/>
</svg>
