<svg xmlns="http://www.w3.org/2000/svg" viewBox="0 0 128 128" role="img" aria-labelledby="title desc">
  <title id="title">Male silhouette avatar</title>
  <desc id="desc">Gray male profile silhouette avatar.</desc>
  <rect width="128" height="128" fill="#E5E7EB"/>
  <ellipse cx="64" cy="124" rx="52" ry="24" fill="#9CA3AF"/>
  <path d="M30 112c2-16 14-28 34-28s32 12 34 28" fill="#9CA3AF"/>
  <path d="M45 82c0-6 4-10 10-10h18c6 0 10 4 10 10v10H45V82z" fill="#9CA3AF"/>
  <ellipse cx="64" cy="48" rx="19" ry="22" fill="#9CA3AF"/>
  <path d="M45 45c0-12 9-22 19-22s19 10 19 22c0 2 0 3-1 5-2-5-6-9-12-9H58c-5 0-10 3-12 8-1-1-1-3-1-4z" fill="#9CA3AF"/>
  <rect x="41" y="47" width="6" height="12" rx="3" fill="#9CA3AF"/>
  <rect x="81" y="47" width="6" height="12" rx="3" fill="#9CA3AF"/>
</svg>
